<svg width="56" height="34" viewBox="0 0 56 34" fill="none" xmlns="http://www.w3.org/2000/svg">
<path d="M14.004 19.7L15.984 25.784C16.056 25.928 16.128 26 16.308 26H20.16C20.376 26 20.412 25.892 20.376 25.712L12.636 2.708C12.6 2.528 12.528 2.492 12.384 2.492H7.56C7.416 2.492 7.344 2.6 7.344 2.744C7.308 3.896 7.2 4.256 7.056 4.616L0.18 25.676C0.108 25.892 0.18 26 0.396 26H3.852C4.032 26 4.14 25.928 4.212 25.748L6.084 19.7H14.004ZM7.128 15.92C8.136 12.608 9.432 8.432 10.008 6.02H10.044C10.656 8.576 12.276 13.508 12.96 15.92H7.128ZM22.6913 21.896C22.6913 25.532 24.4913 26.36 26.6153 26.36C27.5513 26.36 28.1993 26.252 28.5953 26.072C28.7753 26 28.8113 25.928 28.8113 25.676V23.048C28.8113 22.868 28.7753 22.832 28.6673 22.832C28.3793 22.868 28.3073 22.868 28.0193 22.868C27.2273 22.868 26.8673 22.544 26.8673 21.536V0.835998C26.8673 0.655998 26.7953 0.583999 26.5793 0.583999H22.9793C22.7633 0.583999 22.6913 0.655998 22.6913 0.835998V21.896ZM31.7616 21.896C31.7616 25.532 33.5616 26.36 35.6856 26.36C36.6216 26.36 37.2696 26.252 37.6656 26.072C37.8456 26 37.8816 25.928 37.8816 25.676V23.048C37.8816 22.868 37.8456 22.832 37.7376 22.832C37.4496 22.868 37.3776 22.868 37.0896 22.868C36.2976 22.868 35.9376 22.544 35.9376 21.536V0.835998C35.9376 0.655998 35.8656 0.583999 35.6496 0.583999H32.0496C31.8336 0.583999 31.7616 0.655998 31.7616 0.835998V21.896ZM39.1348 8.252C38.9548 8.252 38.8468 8.36 38.9548 8.504C40.9708 14.228 44.1028 22.472 45.0748 25.064C45.1828 25.28 45.1468 25.388 45.0748 25.604C43.9948 28.268 42.9148 30.824 41.9428 32.876C41.8708 33.056 41.9068 33.164 42.1228 33.164L45.8668 32.876C46.1548 32.876 46.2268 32.768 46.2988 32.624C48.9988 26.144 52.6348 16.748 55.1548 8.54C55.2268 8.36 55.1908 8.252 54.9748 8.252H51.4108C51.2308 8.252 51.1228 8.324 51.0508 8.468C49.5028 13.544 48.2788 17.36 47.2348 20.852C46.8028 19.088 45.6868 15.272 43.4548 8.468C43.4188 8.288 43.3108 8.252 43.1668 8.252H39.1348Z" fill="url(#paint0_linear_442_2285)"/>
<defs>
<linearGradient id="paint0_linear_442_2285" x1="63.1186" y1="-4" x2="-3.89054" y2="23.4541" gradientUnits="userSpaceOnUse">
<stop stop-color="#FFD600"/>
<stop offset="1" stop-color="#D14B00"/>
</linearGradient>
</defs>
</svg>
