<svg width="18" height="18" viewBox="0 0 18 18" fill="none" xmlns="http://www.w3.org/2000/svg">
<g clip-path="url(#clip0_1499_8057)">
<path d="M9 18C7.21997 18 5.47991 17.4722 3.99987 16.4832C2.51983 15.4943 1.36628 14.0887 0.685088 12.4442C0.00389957 10.7996 -0.17433 8.99002 0.172936 7.24419C0.520203 5.49836 1.37737 3.89471 2.63604 2.63604C3.89471 1.37737 5.49836 0.520203 7.24419 0.172936C8.99002 -0.17433 10.7996 0.00389957 12.4442 0.685088C14.0887 1.36628 15.4943 2.51983 16.4832 3.99987C17.4722 5.47991 18 7.21997 18 9C18 11.387 17.0518 13.6761 15.364 15.364C13.6761 17.0518 11.387 18 9 18ZM9 1.63637C7.54361 1.63637 6.11993 2.06824 4.90899 2.87736C3.69804 3.68649 2.75423 4.83653 2.19689 6.18206C1.63955 7.52759 1.49373 9.00817 1.77786 10.4366C2.06199 11.865 2.7633 13.1771 3.79313 14.2069C4.82295 15.2367 6.13502 15.938 7.56343 16.2221C8.99183 16.5063 10.4724 16.3605 11.8179 15.8031C13.1635 15.2458 14.3135 14.302 15.1226 13.091C15.9318 11.8801 16.3636 10.4564 16.3636 9C16.3636 7.04705 15.5878 5.17408 14.2069 3.79313C12.8259 2.41218 10.953 1.63637 9 1.63637Z" fill="#4B4B4B"/>
<path d="M8.86915 4.61763C9.22785 4.61248 9.58492 4.66693 9.92579 4.77876C10.2166 4.87294 10.4839 5.02809 10.71 5.23384C10.9186 5.4277 11.0832 5.66417 11.1924 5.9272C11.3063 6.19957 11.3635 6.49233 11.3604 6.78755C11.3722 7.16655 11.2883 7.54241 11.1163 7.88032C10.9527 8.17842 10.7475 8.45168 10.5069 8.69184C10.2364 8.96235 9.9984 9.21202 9.79301 9.44084C9.61099 9.61629 9.50125 9.85353 9.48539 10.1058C9.49567 10.3768 9.57247 10.6411 9.70902 10.8754C9.76468 10.9506 9.74613 10.9877 9.65336 10.9877H8.47755C8.45134 10.988 8.42517 10.9858 8.39942 10.9808C8.36653 10.9707 8.33599 10.9541 8.30958 10.932C8.18528 10.7853 8.09432 10.6134 8.04298 10.4281C7.99956 10.2729 7.97625 10.1127 7.97364 9.95154C7.9693 9.63815 8.07041 9.33239 8.26075 9.08338C8.49455 8.78127 8.74423 8.4918 9.00875 8.21619C9.19438 8.0262 9.36543 7.8225 9.52046 7.60681C9.64337 7.4329 9.70926 7.22512 9.70903 7.01216C9.71103 6.89711 9.68904 6.7829 9.64448 6.67681C9.59992 6.57072 9.53375 6.47507 9.4502 6.39595C9.1967 6.20219 8.879 6.1121 8.56153 6.14395C8.25301 6.1396 7.94578 6.18444 7.65137 6.27677C7.39296 6.35973 7.14416 6.47005 6.90919 6.60587C6.89836 6.61489 6.88471 6.61982 6.87062 6.61982C6.85652 6.61982 6.84287 6.61489 6.83204 6.60587C6.82101 6.59779 6.81207 6.58719 6.80595 6.57497C6.79984 6.56274 6.79673 6.54922 6.79688 6.53555V5.23384C6.79688 5.15962 6.81544 5.11274 6.85255 5.09419C7.47097 4.76029 8.16669 4.59588 8.86915 4.61763ZM8.99515 14.0258C8.74785 14.0346 8.50687 13.9466 8.32328 13.7807C8.15231 13.5918 8.05764 13.3461 8.05764 13.0913C8.05764 12.8365 8.15231 12.5907 8.32328 12.4018C8.41318 12.3177 8.51881 12.2521 8.6341 12.2088C8.74939 12.1656 8.87209 12.1455 8.99515 12.1498C9.12049 12.1448 9.24552 12.1658 9.36234 12.2115C9.47915 12.2572 9.58523 12.3267 9.67386 12.4154C9.75987 12.5045 9.82709 12.61 9.87155 12.7256C9.916 12.8412 9.93678 12.9645 9.93265 13.0883C9.93922 13.213 9.92103 13.3378 9.87913 13.4555C9.83723 13.5731 9.77244 13.6813 9.68851 13.7738C9.59644 13.8612 9.48736 13.9287 9.36806 13.9721C9.24876 14.0154 9.12181 14.0337 8.99512 14.0258L8.99515 14.0258Z" fill="#4B4B4B"/>
</g>
<defs>
<clipPath id="clip0_1499_8057">
<rect width="18" height="18" fill="white"/>
</clipPath>
</defs>
</svg>
