<svg width="18" height="18" viewBox="0 0 18 18" fill="none" xmlns="http://www.w3.org/2000/svg">
<path d="M17.7881 6.30697L14.2302 3.06483C14.1991 3.03385 14.1595 3.01277 14.1164 3.00424C14.0733 2.99571 14.0287 3.00011 13.9881 3.0169C13.9475 3.03368 13.9128 3.06209 13.8883 3.09856C13.8638 3.13502 13.8507 3.17791 13.8505 3.22183V5.62455H5.43962C4.34275 5.61307 3.28333 6.0231 2.48 6.77002C1.95792 7.23424 1.55357 7.81582 1.30023 8.46689C1.0469 9.11796 0.951832 9.81988 1.02286 10.5149C1.16287 11.6364 1.71043 12.6673 2.5613 13.4113C3.41217 14.1553 4.50692 14.5604 5.63714 14.5496L9.31318 14.5293C9.37151 14.5294 9.42928 14.518 9.4832 14.4958C9.53711 14.4735 9.58611 14.4409 9.62739 14.3997C9.66867 14.3585 9.70142 14.3095 9.72377 14.2556C9.74611 14.2018 9.75761 14.144 9.75762 14.0857L9.76894 13.3337C9.76895 13.2751 9.75734 13.2171 9.7348 13.163C9.71225 13.1089 9.67921 13.0598 9.63759 13.0186C9.59597 12.9773 9.54658 12.9447 9.49229 12.9227C9.438 12.9006 9.37988 12.8895 9.32128 12.8901H5.40642C4.63658 12.8395 3.91805 12.4862 3.4078 11.9076C2.89754 11.3289 2.63704 10.5718 2.68319 9.80169C2.71654 9.10374 3.0205 8.44624 3.53057 7.96866C4.04063 7.49109 4.71669 7.231 5.41533 7.24359H13.8505V9.64707C13.8507 9.69099 13.8638 9.73388 13.8883 9.77034C13.9128 9.80681 13.9475 9.83522 13.9881 9.852C14.0287 9.86879 14.0733 9.87319 14.1164 9.86466C14.1595 9.85613 14.1991 9.83505 14.2302 9.80407L17.7881 6.62107C17.8089 6.60058 17.8255 6.57613 17.8368 6.54917C17.8481 6.5222 17.8539 6.49326 17.8539 6.46402C17.8539 6.43478 17.8481 6.40584 17.8368 6.37887C17.8255 6.35191 17.8089 6.32746 17.7881 6.30697V6.30697Z" fill="#4B4B4B"/>
</svg>
