<svg width="18" height="18" viewBox="0 0 18 18" fill="none" xmlns="http://www.w3.org/2000/svg">
<path d="M1.06585 6.30698L4.62371 3.06484C4.65484 3.03386 4.69444 3.01277 4.73752 3.00424C4.7806 2.99571 4.82525 3.00011 4.86583 3.0169C4.90642 3.03368 4.94114 3.06209 4.96561 3.09856C4.99009 3.13503 5.00323 3.17792 5.00338 3.22184V5.62456H13.4143C14.5112 5.61307 15.5706 6.0231 16.374 6.77003C16.896 7.23425 17.3004 7.81583 17.5537 8.4669C17.8071 9.11797 17.9021 9.81989 17.8311 10.5149C17.6911 11.6364 17.1435 12.6674 16.2927 13.4113C15.4418 14.1553 14.347 14.5605 13.2168 14.5496L9.54082 14.5293C9.4825 14.5294 9.42472 14.518 9.37081 14.4958C9.31689 14.4735 9.26789 14.4409 9.22661 14.3997C9.18533 14.3585 9.15259 14.3095 9.13024 14.2557C9.1079 14.2018 9.09639 14.144 9.09639 14.0857L9.08506 13.3337C9.08506 13.2751 9.09666 13.2171 9.11921 13.163C9.14176 13.1089 9.1748 13.0598 9.21642 13.0186C9.25805 12.9773 9.30743 12.9447 9.36172 12.9227C9.41601 12.9006 9.47413 12.8895 9.53273 12.8901H13.4476C14.2174 12.8395 14.9359 12.4863 15.4462 11.9076C15.9564 11.3289 16.217 10.5719 16.1708 9.80175C16.1375 9.1038 15.8335 8.4463 15.3234 7.96872C14.8134 7.49114 14.1373 7.23106 13.4387 7.24365H5.00338V9.64708C5.00323 9.691 4.99009 9.73389 4.96561 9.77036C4.94114 9.80683 4.90642 9.83524 4.86583 9.85202C4.82525 9.86881 4.7806 9.87321 4.73752 9.86468C4.69444 9.85615 4.65484 9.83506 4.62371 9.80408L1.06585 6.62108C1.045 6.60059 1.02844 6.57614 1.01713 6.54918C1.00582 6.52221 1 6.49327 1 6.46403C1 6.43479 1.00582 6.40585 1.01713 6.37888C1.02844 6.35192 1.045 6.32747 1.06585 6.30698V6.30698Z" fill="#4B4B4B"/>
</svg>
