<svg width="29" height="29" viewBox="0 0 29 29" fill="none" xmlns="http://www.w3.org/2000/svg">
<path d="M8.4 10.888H9.344C9.424 10.84 9.76 10.12 10.064 9.416H11.904V18.088C11.408 18.12 10.96 18.168 10.432 18.232V19H15.584V18.232C15.2 18.184 14.56 18.104 14.064 18.088V9.416H16.128C16.416 10.04 16.784 10.792 16.864 10.888H17.808V8.568H8.4V10.888Z" fill="#000000"/>
<path fill-rule="evenodd" clip-rule="evenodd" d="M2 3.66667C2 2.74619 2.74619 2 3.66667 2H22.3333C23.2538 2 24 2.74619 24 3.66667V19H26V3.66667C26 1.64162 24.3584 0 22.3333 0H3.66667C1.64162 0 0 1.64162 0 3.66667V22.3333C0 24.3584 1.64162 26 3.66667 26H19V24H3.66667C2.74619 24 2 23.2538 2 22.3333V3.66667Z" fill="#000000"/>
<line x1="25" y1="21" x2="25" y2="29" stroke="#000000" stroke-width="2"/>
<line x1="21" y1="25" x2="29" y2="25" stroke="#000000" stroke-width="2"/>
</svg>
